<?xml version="1.0" encoding="UTF-8" standalone="no"?>
<!-- Created with Inkscape (http://www.inkscape.org/) -->

<svg
   xmlns:dc="http://purl.org/dc/elements/1.1/"
   xmlns:cc="http://creativecommons.org/ns#"
   xmlns:rdf="http://www.w3.org/1999/02/22-rdf-syntax-ns#"
   xmlns:svg="http://www.w3.org/2000/svg"
   xmlns="http://www.w3.org/2000/svg"
   xmlns:sodipodi="http://sodipodi.sourceforge.net/DTD/sodipodi-0.dtd"
   xmlns:inkscape="http://www.inkscape.org/namespaces/inkscape"
   width="405mm"
   height="110mm"
   viewBox="0 0 405 110"
   version="1.1"
   id="svg8"
   inkscape:version="0.92.3 (2405546, 2018-03-11)"
   sodipodi:docname="exegetic-banner-grad.svg">
  <defs
     id="defs2">
    <inkscape:path-effect
       effect="simplify"
       id="path-effect840"
       is_visible="true"
       steps="1"
       threshold="0.00645161"
       smooth_angles="360"
       helper_size="0"
       simplify_individual_paths="false"
       simplify_just_coalesce="false"
       simplifyindividualpaths="false"
       simplifyJustCoalesce="false" />
    <inkscape:path-effect
       simplifyJustCoalesce="false"
       simplifyindividualpaths="false"
       simplify_just_coalesce="false"
       simplify_individual_paths="false"
       helper_size="0"
       smooth_angles="360"
       threshold="0.00645161"
       steps="1"
       is_visible="true"
       id="path-effect941"
       effect="simplify" />
  </defs>
  <sodipodi:namedview
     id="base"
     pagecolor="#ffffff"
     bordercolor="#666666"
     borderopacity="1.0"
     inkscape:pageopacity="0.0"
     inkscape:pageshadow="2"
     inkscape:zoom="0.25"
     inkscape:cx="1565.042"
     inkscape:cy="327.88492"
     inkscape:document-units="mm"
     inkscape:current-layer="layer1"
     showgrid="true"
     showguides="true"
     inkscape:guide-bbox="true"
     inkscape:measure-start="380,900"
     inkscape:measure-end="380,1080"
     inkscape:window-width="1600"
     inkscape:window-height="832"
     inkscape:window-x="320"
     inkscape:window-y="1080"
     inkscape:window-maximized="1"
     inkscape:pagecheckerboard="true"
     inkscape:snap-global="false">
    <inkscape:grid
       type="xygrid"
       id="grid4485" />
    <sodipodi:guide
       position="52.916665,238.12501"
       orientation="1,0"
       id="guide4491"
       inkscape:locked="false" />
    <sodipodi:guide
       position="2.6458333,193.14584"
       orientation="0,1"
       id="guide4493"
       inkscape:locked="false" />
    <sodipodi:guide
       position="148.16666,238.12501"
       orientation="1,0"
       id="guide4495"
       inkscape:locked="false" />
    <sodipodi:guide
       position="164.04166,209.02084"
       orientation="1,0"
       id="guide4501"
       inkscape:locked="false" />
    <sodipodi:guide
       position="132.29166,182.56251"
       orientation="1,0"
       id="guide4503"
       inkscape:locked="false" />
    <sodipodi:guide
       position="275.16666,21.166666"
       orientation="0,1"
       id="guide4494"
       inkscape:locked="false" />
    <sodipodi:guide
       position="63.499998,84.666664"
       orientation="0,1"
       id="guide4496"
       inkscape:locked="false" />
  </sodipodi:namedview>
  <metadata
     id="metadata5">
    <rdf:RDF>
      <cc:Work
         rdf:about="">
        <dc:format>image/svg+xml</dc:format>
        <dc:type
           rdf:resource="http://purl.org/dc/dcmitype/StillImage" />
        <dc:title></dc:title>
      </cc:Work>
    </rdf:RDF>
  </metadata>
  <g
     inkscape:label="Layer 1"
     inkscape:groupmode="layer"
     id="layer1"
     transform="translate(0,-187)">
    <g
       id="g961"
       transform="matrix(0.47388051,0,0,0.47388051,1.1007824,161.98428)">
      <g
         transform="translate(28.631955,-2.3357321)"
         id="g914">
        <path
           style="fill:none;stroke:#3498db;stroke-width:8;stroke-linecap:round;stroke-linejoin:round;stroke-miterlimit:4;stroke-dasharray:none;stroke-opacity:1;paint-order:markers fill stroke"
           d="M 21.69584,180.58334 V 281.12501 H 116.9459 V 180.58334"
           id="path4487"
           inkscape:connector-curvature="0" />
        <path
           style="fill:none;stroke:#3498db;stroke-width:8;stroke-linecap:round;stroke-linejoin:round;stroke-miterlimit:4;stroke-dasharray:none;stroke-opacity:1"
           d="m 69.320836,230.85418 v -44.97917 c -10e-7,-10.58334 -10e-7,-47.625 47.625064,-47.625 47.625,0 47.625,37.04166 47.62499,47.625 v 44.97917"
           id="path4499"
           inkscape:connector-curvature="0"
           sodipodi:nodetypes="ccccc" />
        <path
           style="fill:none;stroke:#3498db;stroke-width:8;stroke-linecap:round;stroke-linejoin:round;stroke-miterlimit:4;stroke-dasharray:none;stroke-opacity:1"
           d="m 180.44589,214.97917 -15.875,15.87501 -15.875,-15.87501"
           id="path4505"
           inkscape:connector-curvature="0" />
        <g
           aria-label="EXEGETIC"
           style="font-style:normal;font-weight:normal;font-size:10.58333302px;line-height:1.25;font-family:sans-serif;letter-spacing:0px;word-spacing:0px;fill:#000000;fill-opacity:1;stroke:none;stroke-width:0.26458332"
           id="text4493">
          <path
             d="m 273.36403,176.34207 v 8.2296 h -58.5216 v 24.18079 h 47.0408 v 8.3312 h -47.0408 v 24.1808 h 58.5216 v 8.2296 h -66.7512 v -73.15199 z"
             style="font-style:normal;font-variant:normal;font-weight:normal;font-stretch:normal;font-size:101.59999847px;font-family:Orbitron;-inkscape-font-specification:'Orbitron, Normal';font-variant-ligatures:normal;font-variant-caps:normal;font-variant-numeric:normal;font-feature-settings:normal;text-align:start;writing-mode:lr-tb;text-anchor:start;fill:#000000;fill-opacity:1;stroke-width:0.26458332"
             id="path4503"
             inkscape:connector-curvature="0" />
          <path
             d="m 344.64913,176.34207 h 10.5664 l -30.6832,36.57599 30.7848,36.576 h -10.668 l -25.4,-30.1752 -25.5016,30.1752 h -10.5664 l 30.6832,-36.576 -30.6832,-36.57599 h 10.5664 l 25.5016,30.17519 z"
             style="font-style:normal;font-variant:normal;font-weight:normal;font-stretch:normal;font-size:101.59999847px;font-family:Orbitron;-inkscape-font-specification:'Orbitron, Normal';font-variant-ligatures:normal;font-variant-caps:normal;font-variant-numeric:normal;font-feature-settings:normal;text-align:start;writing-mode:lr-tb;text-anchor:start;fill:#000000;fill-opacity:1;stroke-width:0.26458332"
             id="path4506"
             inkscape:connector-curvature="0" />
          <path
             d="m 433.70152,176.34207 v 8.2296 h -58.52159 v 24.18079 h 47.04079 v 8.3312 h -47.04079 v 24.1808 h 58.52159 v 8.2296 h -66.75119 v -73.15199 z"
             style="font-style:normal;font-variant:normal;font-weight:normal;font-stretch:normal;font-size:101.59999847px;font-family:Orbitron;-inkscape-font-specification:'Orbitron, Normal';font-variant-ligatures:normal;font-variant-caps:normal;font-variant-numeric:normal;font-feature-settings:normal;text-align:start;writing-mode:lr-tb;text-anchor:start;fill:#000000;fill-opacity:1;stroke-width:0.26458332"
             id="path4508"
             inkscape:connector-curvature="0" />
          <path
             d="m 517.68663,188.53407 v 2.9464 h -8.2296 v -2.9464 q 0,-1.6256 -1.2192,-2.7432 -1.1176,-1.2192 -2.7432,-1.2192 h -48.768 q -1.6256,0 -2.8448,1.2192 -1.1176,1.1176 -1.1176,2.7432 v 48.76799 q 0,1.6256 1.1176,2.8448 1.2192,1.1176 2.8448,1.1176 h 48.768 q 1.6256,0 2.7432,-1.1176 1.2192,-1.2192 1.2192,-2.8448 v -18.0848 h -18.0848 v -8.3312 h 26.3144 v 26.416 q 0,5.08 -3.556,8.636 -3.556,3.556 -8.636,3.556 h -48.768 q -5.08,0 -8.636,-3.556 -3.556,-3.556 -3.556,-8.636 v -48.76799 q 0,-5.08 3.556,-8.636 3.556,-3.556 8.636,-3.556 h 48.768 q 5.08,0 8.636,3.556 3.556,3.556 3.556,8.636 z"
             style="font-style:normal;font-variant:normal;font-weight:normal;font-stretch:normal;font-size:101.59999847px;font-family:Orbitron;-inkscape-font-specification:'Orbitron, Normal';font-variant-ligatures:normal;font-variant-caps:normal;font-variant-numeric:normal;font-feature-settings:normal;text-align:start;writing-mode:lr-tb;text-anchor:start;fill:#000000;fill-opacity:1;stroke-width:0.26458332"
             id="path4510"
             inkscape:connector-curvature="0" />
          <path
             d="m 595.82497,176.34207 v 8.2296 h -58.5216 v 24.18079 h 47.0408 v 8.3312 h -47.0408 v 24.1808 h 58.5216 v 8.2296 h -66.7512 v -73.15199 z"
             style="font-style:normal;font-variant:normal;font-weight:normal;font-stretch:normal;font-size:101.59999847px;font-family:Orbitron;-inkscape-font-specification:'Orbitron, Normal';font-variant-ligatures:normal;font-variant-caps:normal;font-variant-numeric:normal;font-feature-settings:normal;text-align:start;writing-mode:lr-tb;text-anchor:start;fill:#000000;fill-opacity:1;stroke-width:0.26458332"
             id="path4512"
             inkscape:connector-curvature="0" />
          <path
             d="m 603.00044,176.34207 h 73.152 v 8.2296 h -32.4104 v 64.92239 h -8.2296 v -64.92239 h -32.512 z"
             style="font-style:normal;font-variant:normal;font-weight:normal;font-stretch:normal;font-size:101.59999847px;font-family:Orbitron;-inkscape-font-specification:'Orbitron, Normal';font-variant-ligatures:normal;font-variant-caps:normal;font-variant-numeric:normal;font-feature-settings:normal;text-align:start;writing-mode:lr-tb;text-anchor:start;fill:#000000;fill-opacity:1;stroke-width:0.26458332"
             id="path4514"
             inkscape:connector-curvature="0" />
          <path
             d="m 683.95184,249.49406 v -73.15199 h 8.2296 v 73.15199 z"
             style="font-style:normal;font-variant:normal;font-weight:normal;font-stretch:normal;font-size:101.59999847px;font-family:Orbitron;-inkscape-font-specification:'Orbitron, Normal';font-variant-ligatures:normal;font-variant-caps:normal;font-variant-numeric:normal;font-feature-settings:normal;text-align:start;writing-mode:lr-tb;text-anchor:start;fill:#000000;fill-opacity:1;stroke-width:0.26458332"
             id="path4516"
             inkscape:connector-curvature="0" />
          <path
             d="m 779.22247,184.57167 h -60.75679 q -1.6256,0 -2.8448,1.2192 -1.1176,1.1176 -1.1176,2.7432 v 48.76799 q 0,1.6256 1.1176,2.8448 1.2192,1.1176 2.8448,1.1176 h 60.75679 v 8.2296 h -60.75679 q -5.08,0 -8.636,-3.556 -3.556,-3.556 -3.556,-8.636 v -48.76799 q 0,-5.08 3.556,-8.636 3.556,-3.556 8.636,-3.556 h 60.75679 z"
             style="font-style:normal;font-variant:normal;font-weight:normal;font-stretch:normal;font-size:101.59999847px;font-family:Orbitron;-inkscape-font-specification:'Orbitron, Normal';font-variant-ligatures:normal;font-variant-caps:normal;font-variant-numeric:normal;font-feature-settings:normal;text-align:start;writing-mode:lr-tb;text-anchor:start;fill:#000000;fill-opacity:1;stroke-width:0.26458332"
             id="path4518"
             inkscape:connector-curvature="0" />
        </g>
      </g>
      <g
         transform="matrix(1.0625593,0.28164668,-0.28164668,1.0625593,167.36712,-319.6513)"
         id="g935">
        <g
           id="g1666"
           transform="matrix(-0.01436151,0.00293639,-0.00293639,-0.01436151,185.19731,429.49314)"
           style="fill:#000000;stroke:none">
          <path
             id="path1664"
             d="M 6336,7940 C 6288,7923 5805,7806 4965,7610 4899,7594 4445,7487 3955,7371 1878,6881 1203,6722 662,6594 347,6520 78,6455 65,6450 33,6438 9,6400 3,6351 c -8,-55 15,-87 85,-118 92,-41 877,-380 1907,-823 374,-161 683,-296 687,-299 3,-3 -10,-33 -29,-66 -201,-337 -365,-785 -439,-1192 -19,-107 -14,-150 23,-187 42,-43 62,-42 226,7 754,228 1394,270 2073,136 179,-35 350,-81 683,-183 263,-82 434,-122 661,-158 128,-20 183,-22 475,-22 371,-1 403,2 925,84 626,97 698,105 1055,104 241,0 317,-4 451,-22 423,-57 848,-176 1289,-362 147,-62 183,-64 231,-16 42,42 43,58 9,243 -51,271 -146,614 -246,879 -27,72 -49,133 -49,137 0,3 14,8 31,12 28,6 37,0 123,-83 175,-169 416,-329 728,-481 166,-81 178,-88 193,-124 20,-50 19,-102 -5,-178 -47,-154 -185,-290 -432,-429 -124,-70 -196,-163 -342,-440 -102,-193 -178,-309 -386,-590 -278,-376 -420,-599 -566,-890 -139,-279 -274,-617 -370,-928 l -38,-123 23,-44 C 9037,86 9229,7 9440,6 c 101,-1 125,2 198,28 139,47 151,68 152,269 0,69 4,106 10,102 6,-3 10,-26 10,-51 0,-69 20,-186 36,-211 32,-50 136,-49 184,2 22,23 23,31 19,118 -8,173 -3,422 10,540 7,65 15,116 18,114 2,-3 15,-47 29,-98 50,-190 168,-464 231,-540 21,-25 32,-29 75,-29 44,0 54,4 84,34 46,46 45,84 -7,200 -102,225 -150,432 -150,644 0,261 53,441 251,862 195,415 246,572 266,823 l 6,88 67,43 c 217,140 410,346 495,527 69,146 85,295 46,420 -39,124 -111,192 -320,305 -69,36 -183,98 -255,137 -71,38 -163,92 -205,119 -91,60 -212,149 -208,153 3,3 194,48 1068,256 877,208 1178,280 1198,289 45,19 68,123 37,166 -14,22 -40,33 -515,234 -146,62 -519,220 -830,352 -311,133 -653,278 -760,323 -107,46 -332,141 -500,213 -414,176 -1294,551 -1865,794 -652,278 -1219,513 -1420,591 -349,133 -451,155 -559,117 z M 6017,6404 c -3,-3 -12,-4 -19,-1 -8,3 -5,6 6,6 11,1 17,-2 13,-5 z m 126,-11 c -7,-2 -21,-2 -30,0 -10,3 -4,5 12,5 17,0 24,-2 18,-5 z m 180,-10 c -7,-2 -19,-2 -25,0 -7,3 -2,5 12,5 14,0 19,-2 13,-5 z m 100,-10 c -7,-2 -19,-2 -25,0 -7,3 -2,5 12,5 14,0 19,-2 13,-5 z m 144,-9 c -3,-3 -12,-4 -19,-1 -8,3 -5,6 6,6 11,1 17,-2 13,-5 z M 4083,6240 c -51,-10 -97,-21 -103,-25 -5,-3 -10,-4 -10,-1 0,11 46,29 94,36 99,14 110,8 19,-10 z m -193,-74 c 0,-2 -25,-20 -55,-40 -30,-20 -55,-34 -55,-31 0,4 101,75 107,75 2,0 3,-2 3,-4 z m 5268,-289 c 23,-11 41,-21 39,-23 -2,-2 -33,9 -68,26 -35,17 -53,28 -39,24 14,-4 44,-16 68,-27 z"
             inkscape:connector-curvature="0" />
        </g>
        <rect
           style="opacity:1;fill:#000000;fill-opacity:1;stroke:#000000;stroke-width:23.90252876;stroke-linecap:round;stroke-linejoin:bevel;stroke-miterlimit:4;stroke-dasharray:none;stroke-opacity:1;paint-order:stroke markers fill"
           id="rect1697"
           width="68.85096"
           height="33.561584"
           x="-362.35208"
           y="449.49207"
           rx="120.95665"
           ry="25.570755"
           transform="matrix(0.94883135,-0.31578327,0.82345751,0.56737793,0,0)" />
      </g>
    </g>
  </g>
</svg>
